<svg width="54" height="26" viewBox="0 0 54 26" fill="none" xmlns="http://www.w3.org/2000/svg">
<path d="M10.23 15.14C9.71667 15.14 9.25 15.0533 8.83 14.88C8.41667 14.7 8.07333 14.4433 7.8 14.11L8.88 12.83C9.06667 13.07 9.26 13.2533 9.46 13.38C9.66 13.5 9.87 13.56 10.09 13.56C10.6767 13.56 10.97 13.22 10.97 12.54V9.53H8.55V8H12.93V12.42C12.93 13.3333 12.7 14.0167 12.24 14.47C11.78 14.9167 11.11 15.14 10.23 15.14ZM17.0164 15.09C16.3764 15.09 15.8164 14.97 15.3364 14.73C14.8631 14.4833 14.4931 14.15 14.2264 13.73C13.9664 13.3033 13.8364 12.82 13.8364 12.28C13.8364 11.74 13.9631 11.26 14.2164 10.84C14.4764 10.4133 14.8331 10.0833 15.2864 9.85C15.7397 9.61 16.2497 9.49 16.8164 9.49C17.3497 9.49 17.8364 9.6 18.2764 9.82C18.7164 10.0333 19.0664 10.35 19.3264 10.77C19.5864 11.19 19.7164 11.7 19.7164 12.3C19.7164 12.3667 19.7131 12.4433 19.7064 12.53C19.6997 12.6167 19.6931 12.6967 19.6864 12.77H15.3964V11.77H18.6764L17.9564 12.05C17.9631 11.8033 17.9164 11.59 17.8164 11.41C17.7231 11.23 17.5897 11.09 17.4164 10.99C17.2497 10.89 17.0531 10.84 16.8264 10.84C16.5997 10.84 16.3997 10.89 16.2264 10.99C16.0597 11.09 15.9297 11.2333 15.8364 11.42C15.7431 11.6 15.6964 11.8133 15.6964 12.06V12.35C15.6964 12.6167 15.7497 12.8467 15.8564 13.04C15.9697 13.2333 16.1297 13.3833 16.3364 13.49C16.5431 13.59 16.7897 13.64 17.0764 13.64C17.3431 13.64 17.5697 13.6033 17.7564 13.53C17.9497 13.45 18.1397 13.33 18.3264 13.17L19.3264 14.21C19.0664 14.4967 18.7464 14.7167 18.3664 14.87C17.9864 15.0167 17.5364 15.09 17.0164 15.09ZM15.7964 8.93L17.1364 7.41H19.0364L17.1564 8.93H15.7964ZM22.5624 15.09C22.1024 15.09 21.6524 15.0367 21.2124 14.93C20.7791 14.8233 20.4291 14.69 20.1624 14.53L20.7324 13.23C20.9858 13.3833 21.2824 13.5067 21.6224 13.6C21.9624 13.6867 22.2958 13.73 22.6224 13.73C22.9424 13.73 23.1624 13.6967 23.2824 13.63C23.4091 13.5633 23.4724 13.4733 23.4724 13.36C23.4724 13.2533 23.4124 13.1767 23.2924 13.13C23.1791 13.0767 23.0258 13.0367 22.8324 13.01C22.6458 12.9833 22.4391 12.9533 22.2124 12.92C21.9858 12.8867 21.7558 12.8433 21.5224 12.79C21.2958 12.73 21.0858 12.6433 20.8924 12.53C20.7058 12.41 20.5558 12.25 20.4424 12.05C20.3291 11.85 20.2724 11.5967 20.2724 11.29C20.2724 10.9433 20.3724 10.6367 20.5724 10.37C20.7791 10.0967 21.0791 9.88333 21.4724 9.73C21.8658 9.57 22.3458 9.49 22.9124 9.49C23.2924 9.49 23.6758 9.53 24.0624 9.61C24.4558 9.68333 24.7858 9.79667 25.0524 9.95L24.4824 11.24C24.2158 11.0867 23.9491 10.9833 23.6824 10.93C23.4158 10.87 23.1624 10.84 22.9224 10.84C22.6024 10.84 22.3758 10.8767 22.2424 10.95C22.1158 11.0233 22.0524 11.1133 22.0524 11.22C22.0524 11.3267 22.1091 11.41 22.2224 11.47C22.3358 11.5233 22.4858 11.5667 22.6724 11.6C22.8658 11.6267 23.0758 11.6567 23.3024 11.69C23.5291 11.7167 23.7558 11.76 23.9824 11.82C24.2158 11.88 24.4258 11.97 24.6124 12.09C24.8058 12.2033 24.9591 12.36 25.0724 12.56C25.1858 12.7533 25.2424 13.0033 25.2424 13.31C25.2424 13.6433 25.1391 13.9433 24.9324 14.21C24.7324 14.4767 24.4324 14.69 24.0324 14.85C23.6391 15.01 23.1491 15.09 22.5624 15.09ZM28.0312 15.09C27.5712 15.09 27.1212 15.0367 26.6812 14.93C26.2478 14.8233 25.8978 14.69 25.6312 14.53L26.2012 13.23C26.4545 13.3833 26.7512 13.5067 27.0912 13.6C27.4312 13.6867 27.7645 13.73 28.0912 13.73C28.4112 13.73 28.6312 13.6967 28.7512 13.63C28.8778 13.5633 28.9412 13.4733 28.9412 13.36C28.9412 13.2533 28.8812 13.1767 28.7612 13.13C28.6478 13.0767 28.4945 13.0367 28.3012 13.01C28.1145 12.9833 27.9078 12.9533 27.6812 12.92C27.4545 12.8867 27.2245 12.8433 26.9912 12.79C26.7645 12.73 26.5545 12.6433 26.3612 12.53C26.1745 12.41 26.0245 12.25 25.9112 12.05C25.7978 11.85 25.7412 11.5967 25.7412 11.29C25.7412 10.9433 25.8412 10.6367 26.0412 10.37C26.2478 10.0967 26.5478 9.88333 26.9412 9.73C27.3345 9.57 27.8145 9.49 28.3812 9.49C28.7612 9.49 29.1445 9.53 29.5312 9.61C29.9245 9.68333 30.2545 9.79667 30.5212 9.95L29.9512 11.24C29.6845 11.0867 29.4178 10.9833 29.1512 10.93C28.8845 10.87 28.6312 10.84 28.3912 10.84C28.0712 10.84 27.8445 10.8767 27.7112 10.95C27.5845 11.0233 27.5212 11.1133 27.5212 11.22C27.5212 11.3267 27.5778 11.41 27.6912 11.47C27.8045 11.5233 27.9545 11.5667 28.1412 11.6C28.3345 11.6267 28.5445 11.6567 28.7712 11.69C28.9978 11.7167 29.2245 11.76 29.4512 11.82C29.6845 11.88 29.8945 11.97 30.0812 12.09C30.2745 12.2033 30.4278 12.36 30.5412 12.56C30.6545 12.7533 30.7112 13.0033 30.7112 13.31C30.7112 13.6433 30.6078 13.9433 30.4012 14.21C30.2012 14.4767 29.9012 14.69 29.5012 14.85C29.1078 15.01 28.6178 15.09 28.0312 15.09ZM31.5299 15V9.58H33.4299V15H31.5299ZM32.4799 8.98C32.1333 8.98 31.8533 8.88333 31.6399 8.69C31.4266 8.49667 31.3199 8.25667 31.3199 7.97C31.3199 7.68333 31.4266 7.44333 31.6399 7.25C31.8533 7.05667 32.1333 6.96 32.4799 6.96C32.8266 6.96 33.1066 7.05333 33.3199 7.24C33.5333 7.42 33.6399 7.65333 33.6399 7.94C33.6399 8.24 33.5333 8.49 33.3199 8.69C33.1133 8.88333 32.8333 8.98 32.4799 8.98ZM37.4347 15.09C36.8347 15.09 36.298 14.97 35.8247 14.73C35.358 14.49 34.9914 14.16 34.7247 13.74C34.458 13.3133 34.3247 12.8267 34.3247 12.28C34.3247 11.7333 34.458 11.25 34.7247 10.83C34.9914 10.41 35.358 10.0833 35.8247 9.85C36.298 9.61 36.8347 9.49 37.4347 9.49C38.048 9.49 38.578 9.62 39.0247 9.88C39.4714 10.14 39.788 10.5067 39.9747 10.98L38.5047 11.73C38.378 11.4767 38.2214 11.2933 38.0347 11.18C37.848 11.06 37.6447 11 37.4247 11C37.2047 11 37.0047 11.05 36.8247 11.15C36.6447 11.25 36.5014 11.3967 36.3947 11.59C36.2947 11.7767 36.2447 12.0067 36.2447 12.28C36.2447 12.56 36.2947 12.7967 36.3947 12.99C36.5014 13.1833 36.6447 13.33 36.8247 13.43C37.0047 13.53 37.2047 13.58 37.4247 13.58C37.6447 13.58 37.848 13.5233 38.0347 13.41C38.2214 13.29 38.378 13.1033 38.5047 12.85L39.9747 13.6C39.788 14.0733 39.4714 14.44 39.0247 14.7C38.578 14.96 38.048 15.09 37.4347 15.09ZM44.0001 15V13.99L43.8701 13.74V11.88C43.8701 11.58 43.7767 11.35 43.5901 11.19C43.4101 11.0233 43.1201 10.94 42.7201 10.94C42.4601 10.94 42.1967 10.9833 41.9301 11.07C41.6634 11.15 41.4367 11.2633 41.2501 11.41L40.6101 10.12C40.9167 9.92 41.2834 9.76667 41.7101 9.66C42.1434 9.54667 42.5734 9.49 43.0001 9.49C43.8801 9.49 44.5601 9.69333 45.0401 10.1C45.5267 10.5 45.7701 11.13 45.7701 11.99V15H44.0001ZM42.4001 15.09C41.9667 15.09 41.6001 15.0167 41.3001 14.87C41.0001 14.7233 40.7701 14.5233 40.6101 14.27C40.4567 14.0167 40.3801 13.7333 40.3801 13.42C40.3801 13.0867 40.4634 12.8 40.6301 12.56C40.8034 12.3133 41.0667 12.1267 41.4201 12C41.7734 11.8667 42.2301 11.8 42.7901 11.8H44.0701V12.79H43.0501C42.7434 12.79 42.5267 12.84 42.4001 12.94C42.2801 13.04 42.2201 13.1733 42.2201 13.34C42.2201 13.5067 42.2834 13.64 42.4101 13.74C42.5367 13.84 42.7101 13.89 42.9301 13.89C43.1367 13.89 43.3234 13.84 43.4901 13.74C43.6634 13.6333 43.7901 13.4733 43.8701 13.26L44.1301 13.96C44.0301 14.3333 43.8334 14.6167 43.5401 14.81C43.2534 14.9967 42.8734 15.09 42.4001 15.09Z" fill="#0E073F"/>
<mask id="path-2-outside-1_3_3" maskUnits="userSpaceOnUse" x="16" y="17" width="30" height="6" fill="black">
<rect fill="white" x="16" y="17" width="30" height="6"/>
<path d="M16.3 17.77H19.354C19.622 17.77 19.86 17.818 20.068 17.914C20.276 18.01 20.438 18.144 20.554 18.316C20.67 18.488 20.728 18.686 20.728 18.91C20.728 19.126 20.666 19.318 20.542 19.486C20.418 19.65 20.254 19.76 20.05 19.816V19.822C20.286 19.878 20.478 19.998 20.626 20.182C20.774 20.362 20.848 20.574 20.848 20.818C20.848 21.046 20.784 21.25 20.656 21.43C20.532 21.61 20.356 21.75 20.128 21.85C19.9 21.95 19.638 22 19.342 22H16.3V17.77ZM19.306 19.6C19.582 19.6 19.804 19.536 19.972 19.408C20.144 19.28 20.23 19.112 20.23 18.904C20.23 18.692 20.144 18.522 19.972 18.394C19.804 18.266 19.58 18.202 19.3 18.202H16.798V19.6H19.306ZM19.282 21.568C19.602 21.568 19.86 21.496 20.056 21.352C20.252 21.208 20.35 21.02 20.35 20.788C20.35 20.56 20.25 20.376 20.05 20.236C19.854 20.092 19.598 20.02 19.282 20.02H16.798V21.568H19.282ZM21.2688 17.77H25.3608V18.214H21.7548V19.6H25.1208V20.032H21.7548V21.562H25.4208V22H21.2688V17.77ZM27.8191 17.77H28.4071L30.6451 22H30.1171L29.5591 20.986H26.6551L26.1031 22H25.5691L27.8191 17.77ZM29.3431 20.542L28.1191 18.208H28.1071L26.8771 20.542H29.3431ZM32.0499 18.214H30.0339V17.77H34.5639V18.214H32.5479V22H32.0499V18.214ZM39.2238 22.12C38.9118 22.12 38.6818 21.944 38.5338 21.592L38.1798 20.776C38.1118 20.616 38.0178 20.488 37.8978 20.392C37.7818 20.296 37.6498 20.248 37.5018 20.248H35.3898V22H34.8918V17.77H37.9578C38.2618 17.77 38.5298 17.82 38.7618 17.92C38.9938 18.02 39.1718 18.164 39.2958 18.352C39.4238 18.536 39.4878 18.75 39.4878 18.994C39.4878 19.314 39.3718 19.58 39.1398 19.792C38.9118 20 38.6038 20.118 38.2158 20.146V20.152C38.4238 20.268 38.5838 20.462 38.6958 20.734L38.9898 21.418C39.0298 21.51 39.0718 21.58 39.1158 21.628C39.1598 21.676 39.2178 21.7 39.2898 21.7C39.3618 21.7 39.4298 21.676 39.4938 21.628C39.5578 21.58 39.6138 21.512 39.6618 21.424L39.9138 21.718C39.7298 21.986 39.4998 22.12 39.2238 22.12ZM37.9218 19.81C38.2418 19.81 38.4978 19.738 38.6898 19.594C38.8858 19.446 38.9838 19.254 38.9838 19.018C38.9838 18.774 38.8858 18.58 38.6898 18.436C38.4978 18.288 38.2418 18.214 37.9218 18.214H35.3898V19.81H37.9218ZM40.2121 17.77H40.7101V22H40.2121V17.77ZM41.0978 21.406L45.0098 18.214H41.1578V17.77H45.5858V18.364L41.6738 21.562H45.6458V22H41.0978V21.406Z"/>
</mask>
<path d="M16.3 17.77H19.354C19.622 17.77 19.86 17.818 20.068 17.914C20.276 18.01 20.438 18.144 20.554 18.316C20.67 18.488 20.728 18.686 20.728 18.91C20.728 19.126 20.666 19.318 20.542 19.486C20.418 19.65 20.254 19.76 20.05 19.816V19.822C20.286 19.878 20.478 19.998 20.626 20.182C20.774 20.362 20.848 20.574 20.848 20.818C20.848 21.046 20.784 21.25 20.656 21.43C20.532 21.61 20.356 21.75 20.128 21.85C19.9 21.95 19.638 22 19.342 22H16.3V17.77ZM19.306 19.6C19.582 19.6 19.804 19.536 19.972 19.408C20.144 19.28 20.23 19.112 20.23 18.904C20.23 18.692 20.144 18.522 19.972 18.394C19.804 18.266 19.58 18.202 19.3 18.202H16.798V19.6H19.306ZM19.282 21.568C19.602 21.568 19.86 21.496 20.056 21.352C20.252 21.208 20.35 21.02 20.35 20.788C20.35 20.56 20.25 20.376 20.05 20.236C19.854 20.092 19.598 20.02 19.282 20.02H16.798V21.568H19.282ZM21.2688 17.77H25.3608V18.214H21.7548V19.6H25.1208V20.032H21.7548V21.562H25.4208V22H21.2688V17.77ZM27.8191 17.77H28.4071L30.6451 22H30.1171L29.5591 20.986H26.6551L26.1031 22H25.5691L27.8191 17.77ZM29.3431 20.542L28.1191 18.208H28.1071L26.8771 20.542H29.3431ZM32.0499 18.214H30.0339V17.77H34.5639V18.214H32.5479V22H32.0499V18.214ZM39.2238 22.12C38.9118 22.12 38.6818 21.944 38.5338 21.592L38.1798 20.776C38.1118 20.616 38.0178 20.488 37.8978 20.392C37.7818 20.296 37.6498 20.248 37.5018 20.248H35.3898V22H34.8918V17.77H37.9578C38.2618 17.77 38.5298 17.82 38.7618 17.92C38.9938 18.02 39.1718 18.164 39.2958 18.352C39.4238 18.536 39.4878 18.75 39.4878 18.994C39.4878 19.314 39.3718 19.58 39.1398 19.792C38.9118 20 38.6038 20.118 38.2158 20.146V20.152C38.4238 20.268 38.5838 20.462 38.6958 20.734L38.9898 21.418C39.0298 21.51 39.0718 21.58 39.1158 21.628C39.1598 21.676 39.2178 21.7 39.2898 21.7C39.3618 21.7 39.4298 21.676 39.4938 21.628C39.5578 21.58 39.6138 21.512 39.6618 21.424L39.9138 21.718C39.7298 21.986 39.4998 22.12 39.2238 22.12ZM37.9218 19.81C38.2418 19.81 38.4978 19.738 38.6898 19.594C38.8858 19.446 38.9838 19.254 38.9838 19.018C38.9838 18.774 38.8858 18.58 38.6898 18.436C38.4978 18.288 38.2418 18.214 37.9218 18.214H35.3898V19.81H37.9218ZM40.2121 17.77H40.7101V22H40.2121V17.77ZM41.0978 21.406L45.0098 18.214H41.1578V17.77H45.5858V18.364L41.6738 21.562H45.6458V22H41.0978V21.406Z" fill="#5044E5"/>
<path d="M16.3 17.77V17.67H16.2V17.77H16.3ZM20.068 17.914L20.1099 17.8232V17.8232L20.068 17.914ZM20.554 18.316L20.6369 18.2601V18.2601L20.554 18.316ZM20.542 19.486L20.6218 19.5463L20.6225 19.5454L20.542 19.486ZM20.05 19.816L20.0235 19.7196L19.95 19.7398V19.816H20.05ZM20.05 19.822H19.95V19.901L20.0269 19.9193L20.05 19.822ZM20.626 20.182L20.5481 20.2447L20.5488 20.2455L20.626 20.182ZM20.656 21.43L20.5745 21.372L20.5736 21.3733L20.656 21.43ZM20.128 21.85L20.0878 21.7584V21.7584L20.128 21.85ZM16.3 22H16.2V22.1H16.3V22ZM19.972 19.408L19.9123 19.3278L19.9114 19.3285L19.972 19.408ZM19.972 18.394L19.9114 18.4735L19.9123 18.4742L19.972 18.394ZM16.798 18.202V18.102H16.698V18.202H16.798ZM16.798 19.6H16.698V19.7H16.798V19.6ZM20.056 21.352L20.1152 21.4326V21.4326L20.056 21.352ZM20.05 20.236L19.9908 20.3166L19.9927 20.3179L20.05 20.236ZM16.798 20.02V19.92H16.698V20.02H16.798ZM16.798 21.568H16.698V21.668H16.798V21.568ZM16.3 17.77V17.87H19.354V17.77V17.67H16.3V17.77ZM19.354 17.77V17.87C19.61 17.87 19.8333 17.9158 20.0261 18.0048L20.068 17.914L20.1099 17.8232C19.8867 17.7202 19.634 17.67 19.354 17.67V17.77ZM20.068 17.914L20.0261 18.0048C20.2193 18.094 20.3664 18.2166 20.4711 18.3719L20.554 18.316L20.6369 18.2601C20.5096 18.0714 20.3327 17.926 20.1099 17.8232L20.068 17.914ZM20.554 18.316L20.4711 18.3719C20.5751 18.5261 20.628 18.7043 20.628 18.91H20.728H20.828C20.828 18.6677 20.7649 18.4499 20.6369 18.2601L20.554 18.316ZM20.728 18.91H20.628C20.628 19.1054 20.5724 19.2764 20.4615 19.4266L20.542 19.486L20.6225 19.5454C20.7596 19.3596 20.828 19.1466 20.828 18.91H20.728ZM20.542 19.486L20.4622 19.4257C20.3519 19.5716 20.2069 19.6692 20.0235 19.7196L20.05 19.816L20.0765 19.9124C20.3011 19.8508 20.4841 19.7284 20.6218 19.5463L20.542 19.486ZM20.05 19.816H19.95V19.822H20.05H20.15V19.816H20.05ZM20.05 19.822L20.0269 19.9193C20.2419 19.9703 20.4144 20.0785 20.5481 20.2447L20.626 20.182L20.7039 20.1193C20.5416 19.9175 20.3301 19.7857 20.0731 19.7247L20.05 19.822ZM20.626 20.182L20.5488 20.2455C20.6813 20.4067 20.748 20.596 20.748 20.818H20.848H20.948C20.948 20.552 20.8667 20.3173 20.7032 20.1185L20.626 20.182ZM20.848 20.818H20.748C20.748 21.0259 20.6901 21.2095 20.5745 21.372L20.656 21.43L20.7375 21.488C20.8779 21.2905 20.948 21.0661 20.948 20.818H20.848ZM20.656 21.43L20.5736 21.3733C20.4616 21.5359 20.3012 21.6648 20.0878 21.7584L20.128 21.85L20.1682 21.9416C20.4108 21.8352 20.6024 21.6841 20.7384 21.4867L20.656 21.43ZM20.128 21.85L20.0878 21.7584C19.8747 21.8519 19.6267 21.9 19.342 21.9V22V22.1C19.6493 22.1 19.9253 22.0481 20.1682 21.9416L20.128 21.85ZM19.342 22V21.9H16.3V22V22.1H19.342V22ZM16.3 22H16.4V17.77H16.3H16.2V22H16.3ZM19.306 19.6V19.7C19.5972 19.7 19.8425 19.6324 20.0326 19.4875L19.972 19.408L19.9114 19.3285C19.7655 19.4396 19.5668 19.5 19.306 19.5V19.6ZM19.972 19.408L20.0317 19.4882C20.2281 19.342 20.33 19.1447 20.33 18.904H20.23H20.13C20.13 19.0793 20.0599 19.218 19.9123 19.3278L19.972 19.408ZM20.23 18.904H20.33C20.33 18.66 20.2287 18.4604 20.0317 18.3138L19.972 18.394L19.9123 18.4742C20.0593 18.5836 20.13 18.724 20.13 18.904H20.23ZM19.972 18.394L20.0326 18.3145C19.8423 18.1694 19.5948 18.102 19.3 18.102V18.202V18.302C19.5652 18.302 19.7657 18.3626 19.9114 18.4735L19.972 18.394ZM19.3 18.202V18.102H16.798V18.202V18.302H19.3V18.202ZM16.798 18.202H16.698V19.6H16.798H16.898V18.202H16.798ZM16.798 19.6V19.7H19.306V19.6V19.5H16.798V19.6ZM19.282 21.568V21.668C19.6166 21.668 19.8973 21.5927 20.1152 21.4326L20.056 21.352L19.9968 21.2714C19.8227 21.3993 19.5874 21.468 19.282 21.468V21.568ZM20.056 21.352L20.1152 21.4326C20.3354 21.2708 20.45 21.0536 20.45 20.788H20.35H20.25C20.25 20.9864 20.1686 21.1452 19.9968 21.2714L20.056 21.352ZM20.35 20.788H20.45C20.45 20.5247 20.3319 20.3112 20.1073 20.1541L20.05 20.236L19.9927 20.3179C20.1681 20.4408 20.25 20.5953 20.25 20.788H20.35ZM20.05 20.236L20.1092 20.1554C19.8915 19.9955 19.6129 19.92 19.282 19.92V20.02V20.12C19.5831 20.12 19.8165 20.1885 19.9908 20.3166L20.05 20.236ZM19.282 20.02V19.92H16.798V20.02V20.12H19.282V20.02ZM16.798 20.02H16.698V21.568H16.798H16.898V20.02H16.798ZM16.798 21.568V21.668H19.282V21.568V21.468H16.798V21.568ZM21.2688 17.77V17.67H21.1687V17.77H21.2688ZM25.3608 17.77H25.4608V17.67H25.3608V17.77ZM25.3608 18.214V18.314H25.4608V18.214H25.3608ZM21.7548 18.214V18.114H21.6547V18.214H21.7548ZM21.7548 19.6H21.6547V19.7H21.7548V19.6ZM25.1208 19.6H25.2208V19.5H25.1208V19.6ZM25.1208 20.032V20.132H25.2208V20.032H25.1208ZM21.7548 20.032V19.932H21.6547V20.032H21.7548ZM21.7548 21.562H21.6547V21.662H21.7548V21.562ZM25.4207 21.562H25.5208V21.462H25.4207V21.562ZM25.4207 22V22.1H25.5208V22H25.4207ZM21.2688 22H21.1687V22.1H21.2688V22ZM21.2688 17.77V17.87H25.3608V17.77V17.67H21.2688V17.77ZM25.3608 17.77H25.2607V18.214H25.3608H25.4608V17.77H25.3608ZM25.3608 18.214V18.114H21.7548V18.214V18.314H25.3608V18.214ZM21.7548 18.214H21.6547V19.6H21.7548H21.8548V18.214H21.7548ZM21.7548 19.6V19.7H25.1208V19.6V19.5H21.7548V19.6ZM25.1208 19.6H25.0208V20.032H25.1208H25.2208V19.6H25.1208ZM25.1208 20.032V19.932H21.7548V20.032V20.132H25.1208V20.032ZM21.7548 20.032H21.6547V21.562H21.7548H21.8548V20.032H21.7548ZM21.7548 21.562V21.662H25.4207V21.562V21.462H21.7548V21.562ZM25.4207 21.562H25.3208V22H25.4207H25.5208V21.562H25.4207ZM25.4207 22V21.9H21.2688V22V22.1H25.4207V22ZM21.2688 22H21.3688V17.77H21.2688H21.1687V22H21.2688ZM27.8191 17.77V17.67H27.759L27.7308 17.723L27.8191 17.77ZM28.4071 17.77L28.4955 17.7232L28.4673 17.67H28.4071V17.77ZM30.6451 22V22.1H30.8111L30.7335 21.9532L30.6451 22ZM30.1171 22L30.0295 22.0482L30.058 22.1H30.1171V22ZM29.5591 20.986L29.6467 20.9378L29.6182 20.886H29.5591V20.986ZM26.6551 20.986V20.886H26.5956L26.5672 20.9382L26.6551 20.986ZM26.1031 22V22.1H26.1625L26.1909 22.0478L26.1031 22ZM25.5691 22L25.4808 21.953L25.4026 22.1H25.5691V22ZM29.3431 20.542V20.642H29.5084L29.4316 20.4956L29.3431 20.542ZM28.1191 18.208L28.2076 18.1616L28.1795 18.108H28.1191V18.208ZM28.1071 18.208V18.108H28.0467L28.0186 18.1614L28.1071 18.208ZM26.8771 20.542L26.7886 20.4954L26.7113 20.642H26.8771V20.542ZM27.8191 17.77V17.87H28.4071V17.77V17.67H27.8191V17.77ZM28.4071 17.77L28.3187 17.8168L30.5567 22.0468L30.6451 22L30.7335 21.9532L28.4955 17.7232L28.4071 17.77ZM30.6451 22V21.9H30.1171V22V22.1H30.6451V22ZM30.1171 22L30.2047 21.9518L29.6467 20.9378L29.5591 20.986L29.4715 21.0342L30.0295 22.0482L30.1171 22ZM29.5591 20.986V20.886H26.6551V20.986V21.086H29.5591V20.986ZM26.6551 20.986L26.5672 20.9382L26.0152 21.9522L26.1031 22L26.1909 22.0478L26.7429 21.0338L26.6551 20.986ZM26.1031 22V21.9H25.5691V22V22.1H26.1031V22ZM25.5691 22L25.6573 22.047L27.9073 17.817L27.8191 17.77L27.7308 17.723L25.4808 21.953L25.5691 22ZM29.3431 20.542L29.4316 20.4956L28.2076 18.1616L28.1191 18.208L28.0305 18.2544L29.2545 20.5884L29.3431 20.542ZM28.1191 18.208V18.108H28.1071V18.208V18.308H28.1191V18.208ZM28.1071 18.208L28.0186 18.1614L26.7886 20.4954L26.8771 20.542L26.9655 20.5886L28.1955 18.2546L28.1071 18.208ZM26.8771 20.542V20.642H29.3431V20.542V20.442H26.8771V20.542ZM32.0499 18.214H32.1499V18.114H32.0499V18.214ZM30.0339 18.214H29.9339V18.314H30.0339V18.214ZM30.0339 17.77V17.67H29.9339V17.77H30.0339ZM34.5639 17.77H34.6639V17.67H34.5639V17.77ZM34.5639 18.214V18.314H34.6639V18.214H34.5639ZM32.5479 18.214V18.114H32.4479V18.214H32.5479ZM32.5479 22V22.1H32.6479V22H32.5479ZM32.0499 22H31.9499V22.1H32.0499V22ZM32.0499 18.214V18.114H30.0339V18.214V18.314H32.0499V18.214ZM30.0339 18.214H30.1339V17.77H30.0339H29.9339V18.214H30.0339ZM30.0339 17.77V17.87H34.5639V17.77V17.67H30.0339V17.77ZM34.5639 17.77H34.4639V18.214H34.5639H34.6639V17.77H34.5639ZM34.5639 18.214V18.114H32.5479V18.214V18.314H34.5639V18.214ZM32.5479 18.214H32.4479V22H32.5479H32.6479V18.214H32.5479ZM32.5479 22V21.9H32.0499V22V22.1H32.5479V22ZM32.0499 22H32.1499V18.214H32.0499H31.9499V22H32.0499ZM38.5338 21.592L38.626 21.5532L38.6255 21.5522L38.5338 21.592ZM38.1798 20.776L38.0878 20.8151L38.0881 20.8158L38.1798 20.776ZM37.8978 20.392L37.834 20.469L37.8353 20.4701L37.8978 20.392ZM35.3898 20.248V20.148H35.2898V20.248H35.3898ZM35.3898 22V22.1H35.4898V22H35.3898ZM34.8918 22H34.7918V22.1H34.8918V22ZM34.8918 17.77V17.67H34.7918V17.77H34.8918ZM38.7618 17.92L38.7222 18.0118V18.0118L38.7618 17.92ZM39.2958 18.352L39.2123 18.4071L39.2137 18.4091L39.2958 18.352ZM39.1398 19.792L39.2072 19.8659L39.2073 19.8658L39.1398 19.792ZM38.2158 20.146L38.2086 20.0463L38.1158 20.053V20.146H38.2158ZM38.2158 20.152H38.1158V20.2107L38.1671 20.2393L38.2158 20.152ZM38.6958 20.734L38.6033 20.7721L38.6039 20.7735L38.6958 20.734ZM38.9898 21.418L38.8979 21.4575L38.8981 21.4579L38.9898 21.418ZM39.1158 21.628L39.0421 21.6956V21.6956L39.1158 21.628ZM39.4938 21.628L39.4338 21.548H39.4338L39.4938 21.628ZM39.6618 21.424L39.7377 21.3589L39.6434 21.2489L39.574 21.3761L39.6618 21.424ZM39.9138 21.718L39.9962 21.7746L40.0397 21.7113L39.9897 21.6529L39.9138 21.718ZM38.6898 19.594L38.7498 19.674L38.7501 19.6738L38.6898 19.594ZM38.6898 18.436L38.6287 18.5152L38.6306 18.5166L38.6898 18.436ZM35.3898 18.214V18.114H35.2898V18.214H35.3898ZM35.3898 19.81H35.2898V19.91H35.3898V19.81ZM39.2238 22.12V22.02C39.088 22.02 38.9742 21.9822 38.8781 21.9086C38.7806 21.834 38.6953 21.7181 38.626 21.5532L38.5338 21.592L38.4416 21.6308C38.5203 21.8179 38.624 21.966 38.7565 22.0674C38.8904 22.1698 39.0476 22.22 39.2238 22.22V22.12ZM38.5338 21.592L38.6255 21.5522L38.2715 20.7362L38.1798 20.776L38.0881 20.8158L38.4421 21.6318L38.5338 21.592ZM38.1798 20.776L38.2718 20.7369C38.1982 20.5637 38.0948 20.4215 37.9603 20.3139L37.8978 20.392L37.8353 20.4701C37.9408 20.5545 38.0254 20.6683 38.0878 20.8151L38.1798 20.776ZM37.8978 20.392L37.9616 20.315C37.828 20.2044 37.6735 20.148 37.5018 20.148V20.248V20.348C37.6261 20.348 37.7356 20.3876 37.834 20.469L37.8978 20.392ZM37.5018 20.248V20.148H35.3898V20.248V20.348H37.5018V20.248ZM35.3898 20.248H35.2898V22H35.3898H35.4898V20.248H35.3898ZM35.3898 22V21.9H34.8918V22V22.1H35.3898V22ZM34.8918 22H34.9918V17.77H34.8918H34.7918V22H34.8918ZM34.8918 17.77V17.87H37.9578V17.77V17.67H34.8918V17.77ZM37.9578 17.77V17.87C38.2509 17.87 38.505 17.9182 38.7222 18.0118L38.7618 17.92L38.8014 17.8282C38.5546 17.7218 38.2727 17.67 37.9578 17.67V17.77ZM38.7618 17.92L38.7222 18.0118C38.9386 18.1051 39.1003 18.2373 39.2123 18.4071L39.2958 18.352L39.3793 18.2969C39.2433 18.0907 39.049 17.9349 38.8014 17.8282L38.7618 17.92ZM39.2958 18.352L39.2137 18.4091C39.329 18.5749 39.3878 18.7685 39.3878 18.994H39.4878H39.5878C39.5878 18.7315 39.5186 18.4971 39.3779 18.2949L39.2958 18.352ZM39.4878 18.994H39.3878C39.3878 19.2865 39.2832 19.5255 39.0723 19.7182L39.1398 19.792L39.2073 19.8658C39.4604 19.6345 39.5878 19.3415 39.5878 18.994H39.4878ZM39.1398 19.792L39.0724 19.7181C38.8649 19.9074 38.5801 20.0194 38.2086 20.0463L38.2158 20.146L38.223 20.2457C38.6275 20.2166 38.9587 20.0926 39.2072 19.8659L39.1398 19.792ZM38.2158 20.146H38.1158V20.152H38.2158H38.3158V20.146H38.2158ZM38.2158 20.152L38.1671 20.2393C38.3511 20.3419 38.4979 20.5159 38.6033 20.7721L38.6958 20.734L38.7883 20.6959C38.6697 20.4081 38.4965 20.1941 38.2645 20.0647L38.2158 20.152ZM38.6958 20.734L38.6039 20.7735L38.8979 21.4575L38.9898 21.418L39.0817 21.3785L38.7877 20.6945L38.6958 20.734ZM38.9898 21.418L38.8981 21.4579C38.9404 21.5552 38.9877 21.6362 39.0421 21.6956L39.1158 21.628L39.1895 21.5604C39.1559 21.5238 39.1192 21.4648 39.0815 21.3781L38.9898 21.418ZM39.1158 21.628L39.0421 21.6956C39.1071 21.7665 39.1931 21.8 39.2898 21.8V21.7V21.6C39.2425 21.6 39.2125 21.5855 39.1895 21.5604L39.1158 21.628ZM39.2898 21.7V21.8C39.3858 21.8 39.4745 21.7675 39.5538 21.708L39.4938 21.628L39.4338 21.548C39.3851 21.5845 39.3378 21.6 39.2898 21.6V21.7ZM39.4938 21.628L39.5538 21.708C39.6318 21.6495 39.6964 21.5694 39.7496 21.4719L39.6618 21.424L39.574 21.3761C39.5312 21.4546 39.4838 21.5105 39.4338 21.548L39.4938 21.628ZM39.6618 21.424L39.5859 21.4891L39.8379 21.7831L39.9138 21.718L39.9897 21.6529L39.7377 21.3589L39.6618 21.424ZM39.9138 21.718L39.8314 21.6614C39.6622 21.9078 39.4606 22.02 39.2238 22.02V22.12V22.22C39.539 22.22 39.7974 22.0642 39.9962 21.7746L39.9138 21.718ZM37.9218 19.81V19.91C38.2563 19.91 38.5355 19.8347 38.7498 19.674L38.6898 19.594L38.6298 19.514C38.4601 19.6413 38.2273 19.71 37.9218 19.71V19.81ZM38.6898 19.594L38.7501 19.6738C38.9699 19.5078 39.0838 19.2868 39.0838 19.018H38.9838H38.8838C38.8838 19.2212 38.8017 19.3842 38.6295 19.5142L38.6898 19.594ZM38.9838 19.018H39.0838C39.0838 18.7423 38.9707 18.5183 38.749 18.3554L38.6898 18.436L38.6306 18.5166C38.8008 18.6417 38.8838 18.8057 38.8838 19.018H38.9838ZM38.6898 18.436L38.7508 18.3568C38.5365 18.1916 38.2568 18.114 37.9218 18.114V18.214V18.314C38.2268 18.314 38.4591 18.3844 38.6287 18.5152L38.6898 18.436ZM37.9218 18.214V18.114H35.3898V18.214V18.314H37.9218V18.214ZM35.3898 18.214H35.2898V19.81H35.3898H35.4898V18.214H35.3898ZM35.3898 19.81V19.91H37.9218V19.81V19.71H35.3898V19.81ZM40.2121 17.77V17.67H40.1121V17.77H40.2121ZM40.7101 17.77H40.8101V17.67H40.7101V17.77ZM40.7101 22V22.1H40.8101V22H40.7101ZM40.2121 22H40.1121V22.1H40.2121V22ZM40.2121 17.77V17.87H40.7101V17.77V17.67H40.2121V17.77ZM40.7101 17.77H40.6101V22H40.7101H40.8101V17.77H40.7101ZM40.7101 22V21.9H40.2121V22V22.1H40.7101V22ZM40.2121 22H40.3121V17.77H40.2121H40.1121V22H40.2121ZM41.0978 21.406L41.0346 21.3285L40.9978 21.3585V21.406H41.0978ZM45.0098 18.214L45.073 18.2915L45.2905 18.114H45.0098V18.214ZM41.1578 18.214H41.0578V18.314H41.1578V18.214ZM41.1578 17.77V17.67H41.0578V17.77H41.1578ZM45.5858 17.77H45.6858V17.67H45.5858V17.77ZM45.5858 18.364L45.6491 18.4414L45.6858 18.4114V18.364H45.5858ZM41.6738 21.562L41.6105 21.4846L41.3935 21.662H41.6738V21.562ZM45.6458 21.562H45.7458V21.462H45.6458V21.562ZM45.6458 22V22.1H45.7458V22H45.6458ZM41.0978 22H40.9978V22.1H41.0978V22ZM41.0978 21.406L41.161 21.4835L45.073 18.2915L45.0098 18.214L44.9466 18.1365L41.0346 21.3285L41.0978 21.406ZM45.0098 18.214V18.114H41.1578V18.214V18.314H45.0098V18.214ZM41.1578 18.214H41.2578V17.77H41.1578H41.0578V18.214H41.1578ZM41.1578 17.77V17.87H45.5858V17.77V17.67H41.1578V17.77ZM45.5858 17.77H45.4858V18.364H45.5858H45.6858V17.77H45.5858ZM45.5858 18.364L45.5225 18.2866L41.6105 21.4846L41.6738 21.562L41.7371 21.6394L45.6491 18.4414L45.5858 18.364ZM41.6738 21.562V21.662H45.6458V21.562V21.462H41.6738V21.562ZM45.6458 21.562H45.5458V22H45.6458H45.7458V21.562H45.6458ZM45.6458 22V21.9H41.0978V22V22.1H45.6458V22ZM41.0978 22H41.1978V21.406H41.0978H40.9978V22H41.0978Z" fill="#5044E5" mask="url(#path-2-outside-1_3_3)"/>
<path d="M6.346 25.256C5.45933 25.2307 4.769 24.9963 4.275 24.553C3.781 24.1097 3.534 23.356 3.534 22.292V18.587C3.534 17.8017 3.43267 17.2253 3.23 16.858C3.02733 16.4907 2.76133 16.25 2.432 16.136C2.11533 16.022 1.767 15.965 1.387 15.965V14.388C1.767 14.388 2.11533 14.3373 2.432 14.236C2.76133 14.1347 3.02733 13.913 3.23 13.571C3.43267 13.2163 3.534 12.659 3.534 11.899V7.643C3.534 6.59167 3.78733 5.85067 4.294 5.42C4.81333 4.97667 5.49733 4.755 6.346 4.755C6.764 4.755 7.125 4.774 7.429 4.812L7.467 6.408C7.36567 6.37 7.239 6.33833 7.087 6.313C6.94767 6.275 6.79567 6.256 6.631 6.256C6.35233 6.256 6.08633 6.31933 5.833 6.446C5.59233 6.57267 5.472 6.81333 5.472 7.168V12.431C5.472 12.8743 5.38333 13.305 5.206 13.723C5.04133 14.141 4.81333 14.4893 4.522 14.768C4.24333 15.0467 3.92033 15.2113 3.553 15.262C4.09767 15.3127 4.55367 15.5723 4.921 16.041C5.28833 16.5097 5.472 17.105 5.472 17.827V22.767C5.472 23.1217 5.59867 23.3687 5.852 23.508C6.118 23.6473 6.39667 23.717 6.688 23.717C6.992 23.717 7.25167 23.6727 7.467 23.584L7.429 25.199C7.277 25.2117 7.11233 25.2243 6.935 25.237C6.75767 25.2497 6.56133 25.256 6.346 25.256Z" fill="#147AFF"/>
<path d="M47.654 25.256C48.5407 25.2307 49.231 24.9963 49.725 24.553C50.219 24.1097 50.466 23.356 50.466 22.292V18.587C50.466 17.8017 50.5673 17.2253 50.77 16.858C50.9727 16.4907 51.2387 16.25 51.568 16.136C51.8847 16.022 52.233 15.965 52.613 15.965V14.388C52.233 14.388 51.8847 14.3373 51.568 14.236C51.2387 14.1347 50.9727 13.913 50.77 13.571C50.5673 13.2163 50.466 12.659 50.466 11.899V7.643C50.466 6.59167 50.2127 5.85067 49.706 5.42C49.1867 4.97667 48.5027 4.755 47.654 4.755C47.236 4.755 46.875 4.774 46.571 4.812L46.533 6.408C46.6343 6.37 46.761 6.33833 46.913 6.313C47.0523 6.275 47.2043 6.256 47.369 6.256C47.6477 6.256 47.9137 6.31933 48.167 6.446C48.4077 6.57267 48.528 6.81333 48.528 7.168V12.431C48.528 12.8743 48.6167 13.305 48.794 13.723C48.9587 14.141 49.1867 14.4893 49.478 14.768C49.7567 15.0467 50.0797 15.2113 50.447 15.262C49.9023 15.3127 49.4463 15.5723 49.079 16.041C48.7117 16.5097 48.528 17.105 48.528 17.827V22.767C48.528 23.1217 48.4013 23.3687 48.148 23.508C47.882 23.6473 47.6033 23.717 47.312 23.717C47.008 23.717 46.7483 23.6727 46.533 23.584L46.571 25.199C46.723 25.2117 46.8877 25.2243 47.065 25.237C47.2423 25.2497 47.4387 25.256 47.654 25.256Z" fill="#147AFF"/>
</svg>
